<svg width="64" height="64" viewBox="0 0 64 64" fill="none" xmlns="http://www.w3.org/2000/svg">
<path d="M60.6564 36.9805L47.4558 34.78L43.6303 29.0418C42.6381 27.5547 40.9793 26.6667 39.1928 26.6667H19.474C17.6875 26.6667 16.0287 27.5547 15.0365 29.0418L11.1771 34.8321L3.03126 36.8685C1.24738 37.3138 0 38.9101 0 40.7488V47.448C0 49.0197 0.612001 50.4975 1.724 51.6095C2.82038 52.7045 4.33601 53.3335 5.88551 53.3335H9.46814C10.0876 56.3728 12.7797 58.6669 16 58.6669C19.2204 58.6669 21.9124 56.3728 22.5319 53.3335H40.1348C40.7543 56.3728 43.4463 58.6669 46.6667 58.6669C49.8871 58.6669 52.5791 56.3728 53.1986 53.3335H59.1745C60.1927 53.3335 61.1067 52.7698 61.5625 51.8595L63.7188 47.5444C63.7656 47.4507 63.8021 47.3517 63.8255 47.2502L63.9661 46.6538C63.9896 46.5548 64 46.4533 64 46.3517V40.9259C64.0001 38.961 62.5939 37.3021 60.6564 36.9805ZM16 56.0001C13.7943 56.0001 12 54.2058 12 52C12 49.7943 13.7943 48 16 48C18.2058 48 20 49.7943 20 52C20 54.2058 18.2058 56.0001 16 56.0001ZM46.6667 56.0001C44.461 56.0001 42.6667 54.2058 42.6667 52C42.6667 49.7943 44.461 48 46.6667 48C48.8725 48 50.6667 49.7943 50.6667 52C50.6667 54.2058 48.8725 56.0001 46.6667 56.0001ZM61.3336 46.1967L59.1746 50.6667H53.1987C52.5792 47.6274 49.8872 45.3333 46.6668 45.3333C43.4465 45.3333 40.7545 47.6274 40.135 50.6667H22.5319C21.9124 47.6274 19.2204 45.3333 16 45.3333C12.7797 45.3333 10.0876 47.6274 9.46814 50.6667H5.88539C5.03901 50.6667 4.20826 50.3229 3.60938 49.7239C3.00263 49.1158 2.66663 48.3073 2.66663 47.4479V40.7488C2.66663 40.1355 3.08326 39.6043 3.67701 39.4545L12.3229 37.293C12.6458 37.2136 12.9245 37.0156 13.1094 36.7396L17.2553 30.5209C17.75 29.7774 18.5808 29.3334 19.474 29.3334H39.1928C40.0861 29.3334 40.9168 29.7774 41.4116 30.5209L45.5575 36.7396C45.7606 37.0469 46.0835 37.2553 46.4481 37.3151L60.219 39.6108C60.8649 39.7175 61.3336 40.2709 61.3336 40.9259V46.1967V46.1967Z" fill="#212121"/>
<path d="M60.4432 18.2303C60.1281 17.8683 59.6464 17.7003 59.175 17.7928L54.9015 18.6339C54.8988 18.6352 54.8988 18.6352 54.8962 18.6352C54.378 18.7419 53.8546 18.5779 53.4873 18.2107L53.1618 17.8852C51.99 16.7133 51.6722 14.9152 52.3702 13.4085C52.5473 13.027 52.9275 12.7288 53.3858 12.6116L58.1724 11.3929C58.6151 11.2809 58.9692 10.9501 59.1125 10.5166C59.2531 10.083 59.1646 9.60652 58.8729 9.25489C56.826 6.76264 53.8337 5.33301 50.6671 5.33301C47.8051 5.33301 45.1202 6.46063 43.1072 8.50876C41.7374 9.90064 40.0004 10.6663 38.2139 10.6663H8.00038C5.06025 10.6663 2.66699 13.0581 2.66699 15.9997C2.66699 18.9412 5.06025 21.3332 8.00038 21.3332H38.2139C40.0004 21.3332 41.7374 22.0988 43.1072 23.4907C45.1202 25.5388 47.8051 26.6664 50.6671 26.6664C55.1515 26.6664 59.1801 23.8058 60.6906 19.5467C60.8495 19.0948 60.7557 18.5923 60.4432 18.2303ZM50.6671 23.9998C48.5265 23.9998 46.5161 23.1548 45.0082 21.6209C43.1332 19.7159 40.7217 18.6665 38.2139 18.6665H8.00038C6.529 18.6665 5.33375 17.4699 5.33375 15.9999C5.33375 14.5299 6.529 13.3331 8.00038 13.3331H38.2139C40.7218 13.3331 43.1332 12.2836 45.0082 10.3788C47.6515 7.69126 52.0942 7.28889 55.1488 9.41127L52.727 10.0285C51.5003 10.3423 50.464 11.186 49.9535 12.2864C48.7842 14.8033 49.3155 17.8124 51.2738 19.7695L51.5993 20.095C52.602 21.0989 54.0368 21.5273 55.4222 21.25L56.904 20.9584C55.4171 22.8409 53.1358 23.9998 50.6671 23.9998Z" fill="#212121"/>
</svg>
