<svg width="64" height="64" viewBox="0 0 64 64" fill="none" xmlns="http://www.w3.org/2000/svg">
<path d="M54.5746 28.8806C52.3144 19.3238 44.678 11.6889 35.1198 9.42748C34.33 9.23861 33.553 9.72434 33.3699 10.5071C33.1838 11.2898 33.6683 12.0724 34.4495 12.257C42.9466 14.2684 49.7335 21.0553 51.7422 29.5511C51.9013 30.2201 52.4979 30.6704 53.1569 30.6704C53.2678 30.6704 53.3799 30.6575 53.4936 30.632C54.2749 30.4459 54.7592 29.6633 54.5746 28.8806Z" fill="#212121"/>
<path d="M29.0906 26.1819C24.278 26.1819 20.3633 30.0966 20.3633 34.9092C20.3633 39.7217 24.278 43.6364 29.0906 43.6364C33.9031 43.6364 37.8179 39.7217 37.8179 34.9092C37.8179 30.0966 33.9031 26.1819 29.0906 26.1819ZM29.0906 40.7274C25.8818 40.7274 23.2723 38.1181 23.2723 34.9092C23.2723 31.7003 25.8817 29.0909 29.0906 29.0909C32.2995 29.0909 34.9088 31.7004 34.9088 34.9092C34.9088 38.1179 32.2995 40.7274 29.0906 40.7274Z" fill="#212121"/>
<path d="M16.0004 17.4546C13.5941 17.4546 11.6367 19.412 11.6367 21.8182C11.6367 24.2245 13.5941 26.1819 16.0004 26.1819C18.4066 26.1819 20.364 24.2245 20.364 21.8182C20.364 19.412 18.4066 17.4546 16.0004 17.4546ZM16.0004 23.2728C15.1979 23.2728 14.5458 22.6209 14.5458 21.8182C14.5459 21.0157 15.1979 20.3636 16.0004 20.3636C16.8029 20.3636 17.4549 21.0156 17.4549 21.8182C17.4549 22.6207 16.803 23.2728 16.0004 23.2728Z" fill="#212121"/>
<path d="M16.0004 43.6365C13.5941 43.6365 11.6367 45.5938 11.6367 48.0001C11.6367 50.4064 13.5941 52.3638 16.0004 52.3638C18.4066 52.3638 20.364 50.4064 20.364 48.0001C20.364 45.5938 18.4066 43.6365 16.0004 43.6365ZM16.0004 49.4547C15.1979 49.4547 14.5458 48.8028 14.5458 48.0001C14.5458 47.1976 15.1977 46.5455 16.0004 46.5455C16.8029 46.5455 17.4549 47.1975 17.4549 48.0001C17.4549 48.8026 16.803 49.4547 16.0004 49.4547Z" fill="#212121"/>
<path d="M42.182 43.6365C39.7757 43.6365 37.8184 45.5938 37.8184 48.0001C37.8184 50.4064 39.7757 52.3638 42.182 52.3638C44.5883 52.3638 46.5456 50.4064 46.5456 48.0001C46.5456 45.5938 44.5883 43.6365 42.182 43.6365ZM42.182 49.4547C41.3795 49.4547 40.7274 48.8028 40.7274 48.0001C40.7274 47.1976 41.3794 46.5455 42.182 46.5455C42.9845 46.5455 43.6366 47.1975 43.6366 48.0001C43.6366 48.8026 42.9846 49.4547 42.182 49.4547Z" fill="#212121"/>
<path d="M29.0909 0C28.2869 0 27.6363 0.650591 27.6363 1.45459V5.89187C12.2726 6.65714 0 19.3589 0 34.9091C0 50.9503 13.0497 64 29.0909 64C44.6411 64 57.3429 51.7274 58.1081 36.3636H62.5454C63.3494 36.3636 64 35.713 64 34.909C64 15.6606 48.3396 0 29.0909 0ZM29.0909 61.091C14.6547 61.091 2.90905 49.3453 2.90905 34.9091C2.90905 20.964 13.8781 9.56251 27.6363 8.80092V12.0441C27.6363 14.8594 29.5682 17.2529 32.2301 17.7359C39.3338 19.0256 44.9744 24.6663 46.2643 31.77C46.7473 34.432 49.1407 36.3637 51.9561 36.3637H55.1992C54.4375 50.1219 43.0361 61.091 29.0909 61.091ZM51.9559 33.4545C50.571 33.4545 49.3551 32.5071 49.1278 31.2499C47.6207 22.9601 41.0396 16.3792 32.7499 14.8721C31.4929 14.6449 30.5455 13.429 30.5455 12.0441V2.94177C47.0342 3.68332 60.3168 16.966 61.0582 33.4545H51.9559V33.4545Z" fill="#212121"/>
</svg>
