<svg width="64" height="64" viewBox="0 0 64 64" fill="none" xmlns="http://www.w3.org/2000/svg">
<path d="M62.6665 24H57.3331C56.5961 24 55.9998 24.5963 55.9998 25.3333V30.6667H42.6665V29.3333C42.6665 28.8479 42.5668 28.3884 42.4078 27.9577C42.4944 27.9749 42.5812 28.0001 42.6665 28.0001C43.2252 28.0001 43.7447 27.6472 43.9309 27.0886C44.164 26.3893 43.7864 25.6342 43.0884 25.4023L41.3332 24.8172V23.6271L42.2447 23.931C42.3853 23.9778 42.5272 24 42.6665 24C43.2252 24 43.7447 23.6471 43.9309 23.0885C44.164 22.3892 43.7864 21.6341 43.0884 21.4022L41.3332 20.8171V19.627L42.2447 19.9308C42.3853 19.9777 42.5272 19.9998 42.6665 19.9998C43.2252 19.9998 43.7447 19.647 43.9309 19.0883C44.164 18.3891 43.7864 17.634 43.0884 17.4021L41.3332 16.817V15.6268L42.2447 15.9307C42.3853 15.9776 42.5272 15.9997 42.6665 15.9997C43.2252 15.9997 43.7447 15.6468 43.9309 15.0882C44.164 14.389 43.7864 13.6338 43.0884 13.402L41.3332 12.8169V11.6267L42.2447 11.9306C42.3853 11.9775 42.5272 11.9996 42.6665 11.9996C43.2252 11.9996 43.7447 11.6467 43.9309 11.0881C44.164 10.3889 43.7864 9.63373 43.0884 9.40186L41.3332 8.81673V6.95961C42.1455 6.22686 42.6665 5.17762 42.6665 3.99999C42.6665 1.79425 40.8723 0 38.6666 0C36.4608 0 34.6666 1.79425 34.6666 3.99999C34.6666 5.17762 35.1876 6.22686 35.9999 6.95961V7.03949L35.0884 6.73561C34.3814 6.50386 33.6341 6.88011 33.4022 7.57811C33.1691 8.27736 33.5467 9.03248 34.2447 9.26436L35.9999 9.84961V11.0397L35.0884 10.7359C34.3814 10.5027 33.6341 10.8804 33.4022 11.5784C33.1691 12.2776 33.5467 13.0327 34.2447 13.2646L35.9999 13.8496V15.0397L35.0884 14.7358C34.3814 14.5015 33.6341 14.8803 33.4022 15.5783C33.1691 16.2776 33.5467 17.0327 34.2447 17.2646L35.9999 17.8496V19.0397L35.0884 18.7358C34.3814 18.4988 33.6341 18.8817 33.4022 19.5783C33.1691 20.2776 33.5467 21.0327 34.2447 21.2646L35.9999 21.8496V23.0397L35.0884 22.7358C34.3814 22.5041 33.6341 22.8803 33.4022 23.5783C33.1691 24.2776 33.5467 25.0327 34.2447 25.2646L35.9999 25.8496V26.3738C35.1876 27.1066 34.6666 28.1559 34.6666 29.3334V30.6668H29.3332V27.9999C29.3332 24.7807 27.0391 22.0877 23.9998 21.4682V17.3333C24 12.1875 19.8125 7.99998 14.6666 7.99998H9.33336C4.18749 7.99998 0 12.1875 0 17.3333V54.6666C0 59.8124 4.18749 63.9999 9.33336 63.9999H14.6667C19.8125 63.9999 24 59.8124 24 54.6665V50.5317C27.0392 49.9122 29.3333 47.2192 29.3333 43.9999V38.6666H55.9999V43.9999C55.9999 44.7369 56.5963 45.3333 57.3333 45.3333H62.6666C63.4036 45.3333 64 44.7369 64 43.9999V25.3333C63.9999 24.5963 63.4035 24 62.6665 24ZM21.3333 37.8232L16.7331 40.1433C16.0756 40.474 15.8112 41.2762 16.1432 41.9337C16.3776 42.3985 16.8463 42.6668 17.3346 42.6668C17.5365 42.6668 17.7408 42.6212 17.9336 42.5235L21.3333 40.8089V48.4899L16.7331 50.81C16.0756 51.1408 15.8112 51.9429 16.1432 52.6004C16.3776 53.0653 16.8463 53.3335 17.3346 53.3335C17.5365 53.3335 17.7408 53.2879 17.9336 53.1903L21.3333 51.4757V54.6669C21.3333 58.3426 18.3425 61.3335 14.6667 61.3335H9.33336C5.65761 61.3335 2.66674 58.3426 2.66674 54.6669V51.4907L6.07036 53.1929C6.26174 53.2879 6.46486 53.3335 6.66536 53.3335C7.15499 53.3335 7.62499 53.064 7.85936 52.5965C8.18873 51.9377 7.92186 51.1369 7.26299 50.8074L2.66662 48.5085V40.8248L6.07024 42.5262C6.26161 42.6212 6.46474 42.6668 6.66524 42.6668C7.15486 42.6668 7.62624 42.3973 7.85924 41.9298C8.18861 41.2709 7.92173 40.4702 7.26286 40.1407L2.6665 37.8432V30.1582L6.07011 31.8596C6.26149 31.9546 6.46461 32.0002 6.66511 32.0002C7.15474 32.0002 7.62611 31.7307 7.85911 31.2632C8.18848 30.6043 7.92161 29.8036 7.26274 29.4741L2.66637 27.1766V19.4911L6.06999 21.193C6.26136 21.288 6.46449 21.3336 6.66499 21.3336C7.15461 21.3336 7.62461 21.0641 7.85899 20.5966C8.18836 19.9377 7.92149 19.137 7.26261 18.8075L2.74574 16.549C3.13962 13.2461 5.92586 10.6669 9.33298 10.6669H14.6663C18.0672 10.6669 20.85 13.2368 21.2518 16.531L16.7328 18.8101C16.0753 19.1408 15.811 19.943 16.143 20.6005C16.3773 21.0653 16.8461 21.3336 17.3343 21.3336C17.5362 21.3336 17.7406 21.288 17.9333 21.1903L21.3331 19.4757V27.1564H21.3333L16.7331 29.4766C16.0756 29.8073 15.8112 30.6094 16.1432 31.2669C16.3776 31.7318 16.8463 32.0001 17.3346 32.0001C17.5365 32.0001 17.7408 31.9544 17.9336 31.8568L21.3333 30.1422V37.8232V37.8232ZM26.6666 43.9999C26.6666 45.7359 25.5486 47.202 24 47.7543V24.2456C25.5486 24.7978 26.6666 26.2639 26.6666 27.9999V43.9999ZM37.3333 29.3333C37.3333 28.5977 37.9309 27.9999 38.6667 27.9999C39.4023 27.9999 40 28.5976 40 29.3333V30.6667H37.3334L37.3333 29.3333ZM38.6666 2.66662C39.4023 2.66662 39.9999 3.26437 39.9999 3.99999C39.9999 4.73562 39.4023 5.33336 38.6666 5.33336C37.9309 5.33336 37.3332 4.73574 37.3332 3.99999C37.3332 3.26424 37.9309 2.66662 38.6666 2.66662ZM55.9999 35.9999H29.3333V33.3333H55.9999V35.9999ZM61.3333 42.6665H58.6666V26.6666H61.3333V42.6665V42.6665Z" fill="#212121"/>
</svg>
