<svg width="64" height="64" viewBox="0 0 64 64" fill="none" xmlns="http://www.w3.org/2000/svg">
<path d="M49.334 46.6667C49.1037 46.6667 48.8976 46.743 48.6842 46.7982L46.2818 44.3958C45.761 43.8749 44.9172 43.8749 44.3965 44.3958C43.8757 44.9167 43.8756 45.7604 44.3965 46.2812L46.7988 48.6835C46.7437 48.8969 46.6673 49.1029 46.6673 49.3333C46.6673 50.8033 47.864 51.9999 49.334 51.9999C50.804 51.9999 52.0006 50.8034 52.0006 49.3334C52.0006 47.8634 50.804 46.6667 49.334 46.6667Z" fill="#212121"/>
<path d="M50.2511 28.0965C49.4646 24.409 47.5884 21.0756 44.8214 18.4558C44.561 18.2085 44.212 18.0548 43.8526 18.0926C43.4932 18.107 43.1547 18.2645 42.9151 18.5313C39.074 22.7905 38.13 26.6823 40.3904 28.9428C41.453 30.0066 43.285 30.56 45.2199 30.56C46.7055 30.56 48.2537 30.2331 49.5584 29.5587C50.0922 29.2827 50.3761 28.6837 50.2511 28.0965ZM42.276 27.0575C41.2121 25.9936 42.3097 23.573 43.9777 21.4142C45.5637 23.202 46.72 25.2971 47.3736 27.5757C45.4192 28.1721 43.0845 27.8661 42.276 27.0575Z" fill="#212121"/>
<path d="M37.6822 14.2215C33.9947 13.0417 30.005 13.0417 26.3175 14.2215C25.7315 14.4077 25.35 14.9702 25.3918 15.5835C25.725 20.3816 28.5649 24.0001 31.9998 24.0001C35.4347 24.0001 38.2745 20.3816 38.6079 15.5835C38.6495 14.9702 38.268 14.4077 37.6822 14.2215ZM31.9998 21.3334C30.2342 21.3334 28.6652 19.267 28.1808 16.4636C30.6834 15.8491 33.3162 15.8491 35.8188 16.4636C35.3344 19.267 33.7654 21.3334 31.9998 21.3334Z" fill="#212121"/>
<path d="M21.0849 18.5312C20.8454 18.2645 20.5069 18.1069 20.1475 18.0926C19.7907 18.0587 19.4379 18.2099 19.1787 18.4559C16.4119 21.0756 14.5355 24.409 13.749 28.0965C13.624 28.6837 13.9079 29.2827 14.4417 29.5587C15.7477 30.2332 17.2934 30.56 18.7802 30.56C20.7151 30.56 22.5471 30.0052 23.6096 28.9427C25.8714 26.6824 24.9274 22.7891 21.0849 18.5312ZM21.7244 27.0574C20.9145 27.866 18.5799 28.1694 16.6267 27.5756C17.2817 25.297 18.4366 23.2019 20.0226 21.4141C21.6917 23.573 22.7895 25.9924 21.7244 27.0574Z" fill="#212121"/>
<path d="M23.6097 35.0572C21.7321 33.1756 17.447 32.8892 14.4417 34.4412C13.9079 34.7172 13.624 35.3162 13.749 35.9035C14.5355 39.591 16.4117 42.9243 19.1787 45.5441C19.4275 45.7785 19.7556 45.9087 20.0954 45.9087C20.1122 45.9087 20.1305 45.9087 20.1475 45.9075C20.5069 45.8931 20.8454 45.7356 21.085 45.4687C24.9275 41.2108 25.8715 37.3177 23.6097 35.0572ZM20.0225 42.5858C18.4365 40.7981 17.2816 38.703 16.6266 36.4243C18.5824 35.828 20.917 36.134 21.7242 36.9426C22.7895 38.0077 21.6917 40.427 20.0225 42.5858Z" fill="#212121"/>
<path d="M32.0004 26.6665C29.059 26.6665 26.667 29.0584 26.667 31.9999C26.667 34.9414 29.0589 37.3333 32.0004 37.3333C34.9419 37.3333 37.3337 34.9414 37.3337 31.9999C37.3337 29.0584 34.9417 26.6665 32.0004 26.6665ZM32.0004 34.6665C30.5304 34.6665 29.3337 33.4699 29.3337 31.9999C29.3337 30.5299 30.5304 29.3333 32.0004 29.3333C33.4704 29.3333 34.667 30.5299 34.667 31.9999C34.667 33.4699 33.4704 34.6665 32.0004 34.6665Z" fill="#212121"/>
<path d="M64 32C64 14.3555 49.6445 0 32 0C14.3555 0 0 14.3555 0 32C0 49.6445 14.3555 64 32 64C35.5673 64 39.058 63.3982 42.3961 62.2505C44.463 63.3651 46.825 64 49.3334 64C57.4206 64 64 57.4206 64 49.3334C64 46.8252 63.3651 44.4634 62.2506 42.3966C63.3981 39.0588 64 35.5682 64 32ZM49.3334 61.3334C45.1821 61.3334 41.5202 59.2126 39.3647 56H59.3019C57.1465 59.2126 53.4845 61.3334 49.3334 61.3334ZM60 50.6666H61.1986C61.0946 51.5919 60.8992 52.4832 60.5962 53.3332H38.0705C37.7675 52.4831 37.5721 51.5919 37.4681 50.6666H38.6668C39.4038 50.6666 40.0001 50.0702 40.0001 49.3332C40.0001 48.5962 39.4036 48 38.6666 48H37.468C37.7271 45.6971 38.6221 43.6063 39.9992 41.8848L40.3905 42.276C40.6509 42.5364 40.9921 42.6666 41.3332 42.6666C41.6744 42.6666 42.0155 42.5364 42.276 42.276C42.7969 41.7551 42.7969 40.9114 42.276 40.3906L41.8848 39.9994C43.6063 38.6222 45.6971 37.7272 48 37.4681V38.6668C48 39.4038 48.5964 40.0001 49.3334 40.0001C50.0704 40.0001 50.6668 39.4038 50.6668 38.6668V37.4681C52.9696 37.7272 55.0605 38.6222 56.782 39.9994L56.3908 40.3906C55.8699 40.9115 55.8699 41.7553 56.3908 42.276C56.6511 42.5364 56.9924 42.6666 57.3335 42.6666C57.6746 42.6666 58.0157 42.5364 58.2762 42.276L58.6675 41.8848C60.0446 43.6063 60.9396 45.6971 61.1987 48H60C59.263 48 58.6666 48.5964 58.6666 49.3334C58.6666 50.0704 59.263 50.6666 60 50.6666ZM32 40C28.5651 40 25.7252 43.6185 25.3919 48.4166C25.3502 49.0299 25.7318 49.5924 26.3176 49.7786C28.1614 50.3685 30.0729 50.6666 31.9999 50.6666C32.9119 50.6666 33.8204 50.5751 34.7228 50.4419C34.7906 51.344 34.943 52.2209 35.1674 53.0705C34.121 53.2261 33.0649 53.3334 31.9999 53.3334C20.2369 53.3334 10.6665 43.763 10.6665 32C10.6665 20.237 20.237 10.6666 32 10.6666C43.763 10.6666 53.3334 20.237 53.3334 32C53.3334 33.0645 53.2261 34.1207 53.0704 35.1675C51.8749 34.8517 50.6267 34.6666 49.3334 34.6666C43.7629 34.6666 38.9089 37.7889 36.4266 42.3745C35.2312 40.8791 33.6688 40 32 40ZM35.194 45.4934C34.9964 46.2202 34.8421 46.9646 34.7585 47.7314C32.5797 48.1143 30.3325 48.0647 28.181 47.5365C28.6654 44.7331 30.2344 42.6668 32 42.6668C33.242 42.6666 34.4371 43.7561 35.194 45.4934ZM60.3245 39.655C59.0175 38.1726 57.4189 36.9601 55.6159 36.1005C55.8485 34.7494 56 33.38 56 32C56 18.7669 45.2331 8 32 8C18.7669 8 8 18.7669 8 32C8 45.2331 18.7669 56 32 56C33.3798 56 34.7495 55.8486 36.1006 55.616C36.9601 57.4189 38.1724 59.0174 39.6546 60.3241C37.1719 60.9944 34.6071 61.3332 32 61.3332C15.8255 61.3334 2.66663 48.1745 2.66663 32C2.66663 15.8255 15.8255 2.66663 32 2.66663C48.1745 2.66663 61.3334 15.8255 61.3334 32C61.3334 34.6077 60.9945 37.1725 60.3245 39.655Z" fill="#212121"/>
</svg>
