<svg width="64" height="64" viewBox="0 0 64 64" fill="none" xmlns="http://www.w3.org/2000/svg">
<path d="M48.0004 26.6666H36.0004V20.54C39.9032 18.9531 42.667 15.1322 42.667 10.6666C42.667 4.78513 37.8832 0 32.0004 0C26.1175 0 21.3337 4.78513 21.3337 10.6666C21.3337 15.1322 24.0976 18.9531 28.0004 20.54V26.6666H16.0004C13.0602 26.6666 10.667 29.0585 10.667 32V58.6666C10.667 61.6081 13.0602 64 16.0004 64H48.0004C50.9405 64 53.3337 61.6081 53.3337 58.6666V32C53.3337 29.0586 50.9405 26.6666 48.0004 26.6666ZM24.0004 10.6666C24.0004 6.25513 27.5889 2.66663 32.0004 2.66663C36.4119 2.66663 40.0004 6.25513 40.0004 10.6666C40.0004 15.0781 36.4119 18.6666 32.0004 18.6666C27.5889 18.6666 24.0004 15.0781 24.0004 10.6666ZM33.3337 21.1986V41.3334C33.3337 42.069 32.7347 42.6668 32.0004 42.6668C31.266 42.6668 30.667 42.0691 30.667 41.3334V21.1986C31.1086 21.2546 31.5437 21.3334 32.0004 21.3334C32.457 21.3334 32.8921 21.2545 33.3337 21.1986ZM28.246 42.6668C28.7982 44.2153 30.2644 45.3332 32.0004 45.3332C33.7364 45.3332 35.2025 44.2153 35.7547 42.6666H41.3337C42.0707 42.6666 42.6671 42.0702 42.6671 41.3332V36C42.6671 35.2644 43.2661 34.6666 44.0005 34.6666C44.7349 34.6666 45.3339 35.2642 45.3339 36V54.6666C45.3339 55.4023 44.7349 56 44.0005 56C43.2661 56 42.6671 55.4024 42.6671 54.6666V48C42.6671 47.263 42.0707 46.6666 41.3337 46.6666H34.6671C33.9301 46.6666 33.3337 47.263 33.3337 48V54.6666C33.3337 55.4023 32.7347 56 32.0004 56C31.266 56 30.667 55.4024 30.667 54.6666V48C30.667 47.263 30.0706 46.6666 29.3336 46.6666H22.667C21.93 46.6666 21.3336 47.263 21.3336 48V54.6666C21.3336 55.4023 20.7346 56 20.0002 56C19.2659 56 18.6669 55.4024 18.6669 54.6666V36C18.6669 35.2644 19.2659 34.6666 20.0002 34.6666C20.7346 34.6666 21.3336 35.2642 21.3336 36V41.3334C21.3336 42.0704 21.93 42.6668 22.667 42.6668H28.246ZM50.667 58.6666C50.667 60.1366 49.4716 61.3332 48.0004 61.3332H16.0004C14.529 61.3332 13.3337 60.1366 13.3337 58.6666V32C13.3337 30.53 14.5291 29.3334 16.0004 29.3334H28.0004V40H24.0004V36C24.0004 33.7943 22.2061 32 20.0004 32C17.7946 32 16.0004 33.7943 16.0004 36V54.6666C16.0004 56.8724 17.7946 58.6666 20.0004 58.6666C22.2061 58.6666 24.0004 56.8724 24.0004 54.6666V49.3332H28.0004V54.6666C28.0004 56.8724 29.7946 58.6666 32.0004 58.6666C34.2061 58.6666 36.0004 56.8724 36.0004 54.6666V49.3332H40.0004V54.6666C40.0004 56.8724 41.7946 58.6666 44.0004 58.6666C46.2061 58.6666 48.0004 56.8724 48.0004 54.6666V36C48.0004 33.7943 46.2061 32 44.0004 32C41.7946 32 40.0004 33.7943 40.0004 36V40H36.0004V29.3334H48.0004C49.4717 29.3334 50.667 30.53 50.667 32V58.6666V58.6666Z" fill="#212121"/>
<path d="M32.0004 5.33325C29.0602 5.33325 26.667 7.72513 26.667 10.6666C26.667 11.4036 27.2634 12 28.0004 12C28.7374 12 29.3337 11.4036 29.3337 10.6666C29.3337 9.19663 30.529 8 32.0004 8C32.7374 8 33.3338 7.40363 33.3338 6.66663C33.3338 5.92963 32.7374 5.33325 32.0004 5.33325Z" fill="#212121"/>
</svg>
