<svg width="64" height="64" viewBox="0 0 64 64" fill="none" xmlns="http://www.w3.org/2000/svg">
<path d="M32 0C14.3555 0 0 14.3555 0 32C0 49.6445 14.3555 64 32 64C49.6445 64 64 49.6445 64 32C64 14.3555 49.6445 0 32 0ZM32 61.3334C15.8255 61.3334 2.66663 48.1745 2.66663 32C2.66663 15.8255 15.8255 2.66663 32 2.66663C48.1745 2.66663 61.3334 15.8255 61.3334 32C61.3334 48.1745 48.1745 61.3334 32 61.3334Z" fill="#212121"/>
<path d="M31.9996 5.3335C17.2953 5.3335 5.33301 17.2957 5.33301 32.0001C5.33301 46.7045 17.2953 58.6667 31.9996 58.6667C46.704 58.6667 58.6663 46.7045 58.6663 32.0001C58.6663 17.2957 46.704 5.3335 31.9996 5.3335ZM31.9996 8.00012C42.5481 8.00012 51.51 14.8509 54.72 24.3294C48.8071 22.4134 40.721 21.3335 31.9996 21.3335C23.2771 21.3335 15.191 22.4142 9.27913 24.3299C12.4889 14.851 21.451 8.00012 31.9996 8.00012ZM8.40851 36.3106L12.0479 34.9701C13.8421 34.31 15.8748 34.7552 17.2263 36.1069C18.5778 37.4585 19.0231 39.4922 18.363 41.2852L15.4095 49.3009C11.8408 45.8774 9.33163 41.372 8.40851 36.3106ZM31.9996 56.0001C29.3766 56.0001 26.8575 55.562 24.493 54.7806L27.5349 48.1902C28.3344 46.4546 30.087 45.3335 31.9998 45.3335C33.9125 45.3335 35.6651 46.4546 36.4646 48.1902L39.5065 54.7806C37.1418 55.562 34.6226 56.0001 31.9996 56.0001ZM48.5893 49.3014L45.6363 41.2852C44.9761 39.4922 45.4228 37.4584 46.773 36.1069C48.1259 34.7566 50.1559 34.3074 51.9514 34.9701L55.5905 36.3114C54.6673 41.3726 52.1581 45.8782 48.5893 49.3014ZM52.8734 32.4676C50.1078 31.4467 46.9724 32.1356 44.8878 34.2215C42.8031 36.3074 42.1156 39.4415 43.1339 42.2071L46.4233 51.1365C45.0504 52.1739 43.5681 53.0675 41.9889 53.7944L38.8865 47.073C37.6521 44.3959 34.949 42.6667 31.9998 42.6667C29.0505 42.6667 26.3474 44.3959 25.113 47.073L22.0106 53.7944C20.4313 53.0675 18.9488 52.1735 17.5758 51.136L20.8656 42.2071C21.8839 39.4415 21.1964 36.3074 19.1118 34.2215C17.0258 32.1369 13.8918 31.4494 11.1261 32.4676L8.08038 33.5895C8.04538 33.0616 7.99963 32.5366 7.99963 32.0001C7.99963 30.45 8.16013 28.9381 8.44213 27.469C14.0864 25.2965 22.7945 24.0001 31.9996 24.0001C41.2033 24.0001 49.9098 25.2966 55.5569 27.4687C55.8391 28.938 55.9996 30.45 55.9996 32.0001C55.9996 32.5369 55.9539 33.0621 55.919 33.5901L52.8734 32.4676Z" fill="#212121"/>
<path d="M32.0004 26.6665C29.059 26.6665 26.667 29.0584 26.667 31.9999C26.667 34.9414 29.0589 37.3333 32.0004 37.3333C34.9419 37.3333 37.3337 34.9414 37.3337 31.9999C37.3337 29.0584 34.9417 26.6665 32.0004 26.6665ZM32.0004 34.6665C30.5304 34.6665 29.3337 33.4699 29.3337 31.9999C29.3337 30.5299 30.5304 29.3333 32.0004 29.3333C33.4704 29.3333 34.667 30.5299 34.667 31.9999C34.667 33.4699 33.4704 34.6665 32.0004 34.6665Z" fill="#212121"/>
</svg>
