<svg width="64" height="64" viewBox="0 0 64 64" fill="none" xmlns="http://www.w3.org/2000/svg">
<path d="M62.5453 30.5453H53.935L57.8635 25.6363C58.3649 25.0085 58.2627 24.0936 57.6362 23.5908C57.0084 23.0936 56.095 23.1931 55.5908 23.8181L50.209 30.5453H35.5113L45.6931 20.3635H53.818C54.622 20.3635 55.2726 19.7129 55.2726 18.9089C55.2726 18.1049 54.622 17.4545 53.818 17.4545H48.6021L54.8436 11.213C55.4118 10.6448 55.4118 9.72433 54.8436 9.15624C54.2754 8.58802 53.3549 8.58802 52.7869 9.15624L46.5454 15.3977V10.1818C46.5454 9.37783 45.8948 8.72724 45.0908 8.72724C44.2868 8.72724 43.6362 9.37783 43.6362 10.1818V18.3068L33.4544 28.4886V13.7908L40.1816 8.40911C40.808 7.9062 40.9103 6.99147 40.4089 6.36366C39.9046 5.73871 38.9928 5.63643 38.3635 6.13634L33.4544 10.0635V1.45459C33.4544 0.650589 32.8039 0 31.9999 0C31.1959 0 30.5453 0.650589 30.5453 1.45459V10.0636L25.6363 6.13634C25.0085 5.63916 24.0937 5.73857 23.5908 6.36366C23.0894 6.99147 23.1917 7.90634 23.8181 8.40911L30.5453 13.7908V28.4886L20.3635 18.3068V10.1818C20.3635 9.37783 19.7129 8.72724 18.9089 8.72724C18.1049 8.72724 17.4545 9.37783 17.4545 10.1818V15.3977L11.2101 9.15338C10.6419 8.58515 9.72147 8.58515 9.15338 9.15338C8.58515 9.7216 8.58515 10.6421 9.15338 11.2101L15.3977 17.4545H10.1818C9.37783 17.4545 8.72724 18.1051 8.72724 18.9091C8.72724 19.7131 9.37783 20.3637 10.1818 20.3637H18.3068L28.4886 30.5453H13.7908L8.40911 23.8181C7.90484 23.1932 6.99297 23.0909 6.36366 23.5908C5.73721 24.0937 5.63493 25.0085 6.13634 25.6363L10.0648 30.5453H1.45459C0.650589 30.5453 0 31.1959 0 31.9999C0 32.8039 0.650589 33.4545 1.45459 33.4545H10.0648L6.13634 38.3636C5.63493 38.9914 5.73721 39.9063 6.36366 40.409C6.63216 40.6222 6.95316 40.7272 7.27129 40.7272C7.69879 40.7272 8.1207 40.5397 8.40911 40.1817L13.7908 33.4545H28.4886L18.3068 43.6362H10.1818C9.37783 43.6362 8.72724 44.2868 8.72724 45.0908C8.72724 45.8948 9.37783 46.5454 10.1818 46.5454H15.3977L9.15051 52.7926C8.58229 53.3608 8.58229 54.2813 9.15051 54.8494C9.43456 55.1334 9.80683 55.2755 10.179 55.2755C10.5511 55.2755 10.9232 55.1334 11.2074 54.8494L17.4545 48.6021V53.818C17.4545 54.622 18.1051 55.2726 18.9091 55.2726C19.7131 55.2726 20.3637 54.622 20.3637 53.818V45.6931L30.5453 35.5113V50.209L23.8181 55.5908C23.1917 56.0937 23.0894 57.0084 23.5908 57.6362C24.0937 58.2612 25.007 58.3607 25.6363 57.8635L30.5453 53.9364V62.5454C30.5453 63.3494 31.1959 64 31.9999 64C32.8039 64 33.4545 63.3494 33.4545 62.5454V53.9364L38.3636 57.8635C38.6321 58.0767 38.9531 58.1817 39.2712 58.1817C39.6987 58.1817 40.1206 57.9942 40.409 57.6362C40.9104 57.0084 40.8082 56.0935 40.1817 55.5908L33.4545 50.209V35.5113L43.6362 45.693V53.8179C43.6362 54.6219 44.2868 55.2725 45.0908 55.2725C45.8948 55.2725 46.5454 54.6219 46.5454 53.8179V48.602L52.7897 54.8464C53.0738 55.1304 53.446 55.2725 53.8182 55.2725C54.1903 55.2725 54.5624 55.1304 54.8466 54.8464C55.4148 54.2781 55.4148 53.3577 54.8466 52.7896L48.6023 46.5452H53.8182C54.6222 46.5452 55.2728 45.8947 55.2728 45.0907C55.2728 44.2867 54.6222 43.6361 53.8182 43.6361H45.6932L35.5114 33.4542H50.2092L55.5909 40.1814C55.8793 40.5394 56.3011 40.7269 56.7287 40.7269C57.0468 40.7269 57.368 40.6218 57.6363 40.4088C58.2628 39.9059 58.3651 38.9911 57.8637 38.3633L53.9352 33.4542H62.5454C63.3494 33.4542 64 32.8037 64 31.9997C64 31.1957 63.3493 30.5453 62.5453 30.5453Z" fill="#212121"/>
</svg>
