<svg width="64" height="64" viewBox="0 0 64 64" fill="none" xmlns="http://www.w3.org/2000/svg">
<path d="M60 26.6666C57.7943 26.6666 56 28.4609 56 30.6666V34.6666H53.3334V29.6562C53.3334 28.2526 52.7644 26.8776 51.7709 25.8854L48.7812 22.8958C47.789 21.9023 46.414 21.3333 45.0104 21.3333H37.3332V16H41.3332C43.539 16 45.3332 14.2057 45.3332 12C45.3332 9.79425 43.539 8 41.3332 8H25.3333C23.1275 8 21.3333 9.79425 21.3333 12C21.3333 14.2057 23.1275 16 25.3333 16H29.3333V21.3334H24.3229C22.9192 21.3334 21.5443 21.9024 20.552 22.8959L16.7811 26.6667H14.6665C12.4608 26.6667 10.6665 28.461 10.6665 30.6667V34.6668H8V30.6667C8 28.461 6.20575 26.6667 4 26.6667C1.79425 26.6667 0 28.461 0 30.6667V46.6668C0 48.8725 1.79425 50.6668 4 50.6668C6.20575 50.6668 8 48.8725 8 46.6668V42.6668H10.6666V46.6668C10.6666 48.8725 12.4609 50.6668 14.6666 50.6668H16.7812L20.5521 54.4376C21.5444 55.4311 22.9194 56.0001 24.323 56.0001H42.3438C43.7474 56.0001 45.1224 55.4311 46.1146 54.4376L51.7709 48.7814C52.7644 47.7891 53.3334 46.4141 53.3334 45.0105V42.6668H56V46.6668C56 48.8725 57.7943 50.6668 60 50.6668C62.2057 50.6668 64 48.8725 64 46.6668V30.6667C64 28.461 62.2057 26.6666 60 26.6666ZM61.3335 46.6666C61.3334 47.4023 60.7358 48 60 48C59.2644 48 58.6666 47.4024 58.6666 46.6666V41.3332C58.6666 40.5962 58.0702 39.9999 57.3332 39.9999H52C51.263 39.9999 50.6666 40.5962 50.6666 41.3332V45.0104C50.6666 45.7123 50.3815 46.3997 49.8854 46.8957L44.2291 52.552C43.733 53.0481 43.0455 53.3332 42.3438 53.3332H24.3229C23.621 53.3332 22.9335 53.0481 22.4375 52.552L18.276 48.3905C18.026 48.1405 17.6875 47.9999 17.3333 47.9999H14.6666C13.931 47.9999 13.3333 47.4023 13.3333 46.6665V41.3331C13.3333 40.5961 12.7369 39.9997 11.9999 39.9997H6.66663C5.92963 39.9997 5.33325 40.5961 5.33325 41.3331V46.6665C5.33338 47.4024 4.73563 48 4 48C3.26437 48 2.66663 47.4024 2.66663 46.6666V30.6666C2.66663 29.931 3.26425 29.3333 4 29.3333C4.73575 29.3333 5.33337 29.9309 5.33337 30.6666V36C5.33337 36.737 5.92975 37.3334 6.66675 37.3334H12C12.737 37.3334 13.3334 36.737 13.3334 36V30.6666C13.3334 29.931 13.931 29.3333 14.6667 29.3333H17.3334C17.6875 29.3333 18.0261 29.1926 18.2761 28.9426L22.4375 24.7812C22.9336 24.2851 23.6211 24 24.3229 24H30.6666C31.4036 24 32 23.4036 32 22.6666V14.6666C32 13.9296 31.4036 13.3333 30.6666 13.3333H25.3333C24.5976 13.3334 24 12.7356 24 12C24 11.2644 24.5976 10.6666 25.3334 10.6666H41.3334C42.069 10.6666 42.6668 11.2642 42.6668 12C42.6668 12.7358 42.0691 13.3334 41.3334 13.3334H36C35.263 13.3334 34.6666 13.9297 34.6666 14.6667V22.6667C34.6666 23.4037 35.263 24.0001 36 24.0001H45.0104C45.7123 24.0001 46.3997 24.2853 46.8957 24.7814L49.8854 27.771C50.3815 28.2671 50.6666 28.9546 50.6666 29.6564V36C50.6666 36.737 51.263 37.3334 52 37.3334H57.3334C58.0704 37.3334 58.6668 36.737 58.6668 36V30.6666C58.6668 29.931 59.2644 29.3333 60.0001 29.3333C60.7358 29.3333 61.3335 29.9309 61.3335 30.6666V46.6666V46.6666Z" fill="#212121"/>
</svg>
