<svg width="64" height="64" viewBox="0 0 64 64" fill="none" xmlns="http://www.w3.org/2000/svg">
<path d="M14.6666 24H9.33337C8.59637 24 8 24.5964 8 25.3334C8 26.0704 8.59637 26.6667 9.33337 26.6667H14.6667C15.4037 26.6667 16.0001 26.0704 16.0001 25.3334C16 24.5964 15.4036 24 14.6666 24Z" fill="#212121"/>
<path d="M54.6669 24H53.3335V22.6666C53.3335 21.9296 52.7371 21.3333 52.0001 21.3333C51.2631 21.3333 50.6668 21.9296 50.6668 22.6666V24H49.3334C48.5964 24 48 24.5964 48 25.3334C48 26.0704 48.5964 26.6668 49.3334 26.6668H50.6668V28C50.6668 28.737 51.2631 29.3334 52.0001 29.3334C52.7371 29.3334 53.3335 28.737 53.3335 28V26.6666H54.6669C55.4039 26.6666 56.0003 26.0703 56.0003 25.3333C56.0003 24.5964 55.4039 24 54.6669 24Z" fill="#212121"/>
<path d="M58.6666 13.3334V10.6666C58.6666 9.19662 57.4714 8 56 8H48C46.5286 8 45.3334 9.19662 45.3334 10.6666V13.3333H44.5521L43.448 12.2291C42.4558 11.2356 41.0807 10.6666 39.6771 10.6666H24.3229C22.9192 10.6666 21.5443 11.2356 20.552 12.2291L19.4479 13.3333H18.6666V10.6666C18.6666 9.19662 17.4714 8 16 8H8C6.52863 8 5.33337 9.19662 5.33337 10.6666V13.3333C2.39325 13.3334 0 15.7252 0 18.6666V50.6666C0 53.6081 2.39325 56 5.33337 56H58.6668C61.6068 56 64 53.6081 64 50.6666V18.6666C64 15.7252 61.6068 13.3334 58.6666 13.3334ZM48 10.6666H56V13.3333H48V10.6666ZM8 10.6666H16V13.3333H8V10.6666ZM58.6668 53.3332H5.33337C3.862 53.3332 2.66675 52.1366 2.66675 50.6666V18.6666C2.66675 17.1966 3.86212 16 5.33337 16H20C20.3541 16 20.6928 15.8594 20.9428 15.6094L22.4375 14.1146C22.9349 13.6185 23.6224 13.3334 24.3229 13.3334H39.677C40.3775 13.3334 41.065 13.6185 41.5624 14.1146L43.0571 15.6094C43.3071 15.8594 43.6456 16 43.9999 16H58.6665C60.1379 16 61.3331 17.1966 61.3331 18.6666V50.6666H61.3334C61.3334 52.1366 60.138 53.3332 58.6668 53.3332Z" fill="#212121"/>
</svg>
