<svg width="40" height="40" viewBox="0 0 40 40" fill="none" xmlns="http://www.w3.org/2000/svg">
<rect width="40" height="40" rx="4" fill="#00A0E3"/>
<path d="M19.9998 24.1998C21.7671 24.1998 23.1998 22.7671 23.1998 20.9998C23.1998 19.2325 21.7671 17.7998 19.9998 17.7998C18.2325 17.7998 16.7998 19.2325 16.7998 20.9998C16.7998 22.7671 18.2325 24.1998 19.9998 24.1998Z" fill="white"/>
<path d="M17 11L15.17 13H12C10.9 13 10 13.9 10 15V27C10 28.1 10.9 29 12 29H28C29.1 29 30 28.1 30 27V15C30 13.9 29.1 13 28 13H24.83L23 11H17ZM20 26C17.24 26 15 23.76 15 21C15 18.24 17.24 16 20 16C22.76 16 25 18.24 25 21C25 23.76 22.76 26 20 26Z" fill="white"/>
</svg>
