<svg width="40" height="40" viewBox="0 0 40 40" fill="none" xmlns="http://www.w3.org/2000/svg">
<rect x="0.5" y="0.5" width="39" height="39" rx="2.5" stroke="#B31212"/>
<path d="M15.833 24.9998C14.9163 24.9998 14.1747 25.7498 14.1747 26.6665C14.1747 27.5832 14.9163 28.3332 15.833 28.3332C16.7497 28.3332 17.4997 27.5832 17.4997 26.6665C17.4997 25.7498 16.7497 24.9998 15.833 24.9998ZM10.833 11.6665V13.3332H12.4997L15.4997 19.6582L14.3747 21.6998C14.2413 21.9332 14.1663 22.2082 14.1663 22.4998C14.1663 23.4165 14.9163 24.1665 15.833 24.1665H25.833V22.4998H16.183C16.0663 22.4998 15.9747 22.4082 15.9747 22.2915L15.9997 22.1915L16.7497 20.8332H22.958C23.583 20.8332 24.133 20.4915 24.4163 19.9748L27.3997 14.5665C27.4663 14.4498 27.4997 14.3082 27.4997 14.1665C27.4997 13.7082 27.1247 13.3332 26.6663 13.3332H14.3413L13.558 11.6665H10.833ZM24.1663 24.9998C23.2497 24.9998 22.508 25.7498 22.508 26.6665C22.508 27.5832 23.2497 28.3332 24.1663 28.3332C25.083 28.3332 25.833 27.5832 25.833 26.6665C25.833 25.7498 25.083 24.9998 24.1663 24.9998Z" fill="#B31212"/>
</svg>
