<svg width="40" height="40" viewBox="0 0 40 40" fill="none" xmlns="http://www.w3.org/2000/svg">
<path d="M14.601 18.4612C15.934 21.0809 18.0816 23.2192 20.7013 24.5615L22.7379 22.525C22.9878 22.275 23.3581 22.1917 23.6821 22.3028C24.7189 22.6453 25.8389 22.8304 26.9868 22.8304C27.4959 22.8304 27.9125 23.247 27.9125 23.7561V26.9868C27.9125 27.4959 27.4959 27.9125 26.9868 27.9125C18.2945 27.9125 11.25 20.868 11.25 12.1757C11.25 11.6666 11.6666 11.25 12.1757 11.25H15.4156C15.9248 11.25 16.3413 11.6666 16.3413 12.1757C16.3413 13.3328 16.5265 14.4436 16.869 15.4804C16.9708 15.8044 16.8967 16.1654 16.6375 16.4246L14.601 18.4612Z" fill="white"/>
<rect x="0.5" y="0.5" width="39" height="39" rx="2.5" stroke="white"/>
</svg>
