<svg width="40" height="40" viewBox="0 0 40 40" fill="none" xmlns="http://www.w3.org/2000/svg">
<rect width="40" height="40" rx="4" fill="#009846"/>
<g clip-path="url(#clip0)">
<path d="M28.4015 11.4891C27.3012 10.3786 25.9909 9.49819 24.547 8.89918C23.103 8.30017 21.5543 7.99453 19.991 8.00007C13.4405 8.00007 8.102 13.3371 8.096 19.8891C8.096 21.9876 8.645 24.0291 9.6815 25.8366L8 32.0001L14.306 30.3471C16.0505 31.2964 18.0049 31.7941 19.991 31.7946H19.997C26.549 31.7946 31.886 26.4576 31.892 19.8996C31.8935 18.3366 31.5857 16.7889 30.9864 15.3454C30.3871 13.9019 29.5081 12.5913 28.4 11.4891H28.4015ZM19.991 29.7816C18.2195 29.7822 16.4806 29.3055 14.957 28.4016L14.597 28.1856L10.856 29.1666L11.855 25.5171L11.621 25.1406C10.6307 23.5661 10.107 21.7431 10.1105 19.8831C10.1105 14.4441 14.546 10.0071 19.997 10.0071C21.2956 10.0047 22.5818 10.2595 23.7815 10.7566C24.9812 11.2537 26.0706 11.9834 26.987 12.9036C27.9065 13.8201 28.6355 14.9097 29.1319 16.1094C29.6282 17.3091 29.8822 18.5952 29.879 19.8936C29.873 25.3521 25.4375 29.7816 19.991 29.7816ZM25.4135 22.3806C25.118 22.2321 23.6585 21.5136 23.384 21.4116C23.111 21.3141 22.9115 21.2631 22.7165 21.5601C22.517 21.8556 21.947 22.5291 21.776 22.7226C21.605 22.9221 21.428 22.9446 21.131 22.7976C20.8355 22.6476 19.877 22.3356 18.743 21.3201C17.858 20.5326 17.2655 19.5576 17.0885 19.2621C16.9175 18.9651 17.072 18.8061 17.2205 18.6576C17.351 18.5256 17.516 18.3096 17.6645 18.1386C17.8145 17.9676 17.864 17.8416 17.9615 17.6436C18.059 17.4426 18.0125 17.2716 17.939 17.1231C17.864 16.9746 17.2715 15.5091 17.021 14.9181C16.781 14.3346 16.5365 14.4156 16.3535 14.4081C16.1825 14.3976 15.983 14.3976 15.7835 14.3976C15.6328 14.4013 15.4846 14.4362 15.348 14.4999C15.2115 14.5637 15.0896 14.655 14.99 14.7681C14.717 15.0651 13.9535 15.7836 13.9535 17.2491C13.9535 18.7146 15.0185 20.1231 15.1685 20.3226C15.3155 20.5221 17.2595 23.5206 20.243 24.8106C20.948 25.1181 21.503 25.2996 21.9365 25.4376C22.649 25.6656 23.2925 25.6311 23.8055 25.5576C24.3755 25.4706 25.562 24.8376 25.8125 24.1431C26.0585 23.4471 26.0585 22.8531 25.9835 22.7286C25.91 22.6026 25.7105 22.5291 25.4135 22.3806Z" fill="white"/>
</g>
<defs>
<clipPath id="clip0">
<rect width="24" height="24" fill="white" transform="translate(8 8)"/>
</clipPath>
</defs>
</svg>
