<svg width="32" height="32" viewBox="0 0 32 32" fill="none" xmlns="http://www.w3.org/2000/svg">
<path d="M30.3282 18.4903L23.7279 17.39L21.8152 14.5209C21.319 13.7774 20.4897 13.3334 19.5964 13.3334H9.73702C8.84377 13.3334 8.01433 13.7774 7.51827 14.5209L5.58857 17.4161L1.51563 18.4343C0.623689 18.6569 0 19.4551 0 20.3744V23.724C0 24.5098 0.306001 25.2488 0.862002 25.8048C1.41019 26.3523 2.168 26.6668 2.94276 26.6668H4.73407C5.04382 28.1864 6.38983 29.3335 8.00002 29.3335C9.61021 29.3335 10.9562 28.1864 11.266 26.6668H20.0674C20.3772 28.1864 21.7232 29.3335 23.3334 29.3335C24.9436 29.3335 26.2896 28.1864 26.5993 26.6668H29.5872C30.0964 26.6668 30.5534 26.3849 30.7812 25.9298L31.8594 23.7722C31.8828 23.7253 31.9011 23.6758 31.9128 23.6251L31.9831 23.3269C31.9948 23.2774 32 23.2266 32 23.1758V20.463C32.0001 19.4805 31.2969 18.6511 30.3282 18.4903ZM8.00002 28C6.89714 28 6.00001 27.1029 6.00001 26C6.00001 24.8971 6.89714 24 8.00002 24C9.10289 24 10 24.8971 10 26C10 27.1029 9.10289 28 8.00002 28ZM23.3334 28C22.2305 28 21.3334 27.1029 21.3334 26C21.3334 24.8971 22.2305 24 23.3334 24C24.4362 24 25.3334 24.8971 25.3334 26C25.3334 27.1029 24.4362 28 23.3334 28ZM30.6668 23.0983L29.5873 25.3333H26.5994C26.2896 23.8137 24.9436 22.6666 23.3334 22.6666C21.7232 22.6666 20.3772 23.8137 20.0675 25.3333H11.266C10.9562 23.8137 9.61021 22.6666 8.00002 22.6666C6.38983 22.6666 5.04382 23.8137 4.73407 25.3333H2.94269C2.51951 25.3333 2.10413 25.1615 1.80469 24.862C1.50132 24.5579 1.33332 24.1536 1.33332 23.724V20.3744C1.33332 20.0678 1.54163 19.8021 1.8385 19.7273L6.16145 18.6465C6.32289 18.6068 6.46226 18.5078 6.5547 18.3698L8.62764 15.2604C8.87502 14.8887 9.29039 14.6667 9.73702 14.6667H19.5964C20.043 14.6667 20.4584 14.8887 20.7058 15.2604L22.7787 18.3698C22.8803 18.5234 23.0417 18.6276 23.224 18.6576L30.1095 19.8054C30.4324 19.8588 30.6668 20.1355 30.6668 20.463V23.0983Z" fill="#999999"/>
<path d="M30.2211 9.1152C30.0636 8.9342 29.8227 8.8502 29.587 8.89645L27.4503 9.31702C27.4489 9.31764 27.4489 9.31764 27.4476 9.31764C27.1885 9.37102 26.9268 9.28902 26.7432 9.10539L26.5804 8.94264C25.9945 8.3567 25.8356 7.45764 26.1846 6.70432C26.2732 6.51357 26.4632 6.36445 26.6924 6.30588L29.0857 5.69651C29.3071 5.64051 29.4841 5.47513 29.5558 5.25838C29.6261 5.04157 29.5818 4.80332 29.4359 4.62751C28.4125 3.38138 26.9164 2.66656 25.3331 2.66656C23.9021 2.66656 22.5596 3.23038 21.5531 4.25444C20.8682 4.95038 19.9997 5.33319 19.1065 5.33319H3.9997C2.52964 5.33319 1.33301 6.52913 1.33301 7.99989C1.33301 9.47064 2.52964 10.6666 3.9997 10.6666H19.1065C19.9997 10.6666 20.8682 11.0495 21.5531 11.7454C22.5596 12.7695 23.9021 13.3333 25.3331 13.3333C27.5753 13.3333 29.5896 11.903 30.3448 9.77339C30.4243 9.54745 30.3774 9.2962 30.2211 9.1152ZM25.3331 12C24.2627 12 23.2576 11.5775 22.5036 10.8105C21.5661 9.85802 20.3604 9.33333 19.1065 9.33333H3.9997C3.26401 9.33333 2.66639 8.73501 2.66639 8.00001C2.66639 7.26501 3.26401 6.66664 3.9997 6.66664H19.1065C20.3604 6.66664 21.5661 6.14188 22.5036 5.18944C23.8252 3.84569 26.0466 3.6445 27.5739 4.70569L26.363 5.01432C25.7497 5.17119 25.2315 5.59307 24.9762 6.14326C24.3916 7.4017 24.6572 8.90626 25.6364 9.88483L25.7992 10.0476C26.3005 10.5495 27.0179 10.7637 27.7106 10.6251L28.4515 10.4793C27.7081 11.4205 26.5674 12 25.3331 12Z" fill="#999999"/>
</svg>
