<svg width="40" height="40" viewBox="0 0 40 40" fill="none" xmlns="http://www.w3.org/2000/svg">
<path d="M19.5819 11.25C16.3577 11.25 13.75 13.8577 13.75 17.0819C13.75 21.4558 19.5819 27.9125 19.5819 27.9125C19.5819 27.9125 25.4138 21.4558 25.4138 17.0819C25.4138 13.8577 22.8061 11.25 19.5819 11.25ZM19.5819 19.1647C18.4322 19.1647 17.4991 18.2316 17.4991 17.0819C17.4991 15.9322 18.4322 14.9991 19.5819 14.9991C20.7316 14.9991 21.6647 15.9322 21.6647 17.0819C21.6647 18.2316 20.7316 19.1647 19.5819 19.1647Z" fill="white"/>
<path d="M0.5 3C0.5 1.61929 1.61929 0.5 3 0.5H37C38.3807 0.5 39.5 1.61929 39.5 3V37C39.5 38.3807 38.3807 39.5 37 39.5H3C1.61929 39.5 0.5 38.3807 0.5 37V3Z" stroke="white"/>
</svg>
