<svg width="40" height="40" viewBox="0 0 40 40" fill="none" xmlns="http://www.w3.org/2000/svg">
<rect width="40" height="40" rx="4" fill="#EF7F1A"/>
<path d="M22.2266 33.3336H22.1466C21.8531 33.3159 21.5738 33.2017 21.3519 33.0088C21.1301 32.8159 20.9782 32.5551 20.9199 32.2669L18.6666 21.3336L7.73327 19.0802C7.44456 19.0229 7.18294 18.8716 6.98921 18.65C6.79547 18.4284 6.6805 18.149 6.66224 17.8552C6.64397 17.5614 6.72343 17.2699 6.88823 17.026C7.05302 16.7821 7.29389 16.5996 7.57327 16.5069L28.9066 9.40024C29.1461 9.30137 29.4091 9.2744 29.6637 9.32263C29.9182 9.37086 30.1532 9.4922 30.3399 9.67182C30.5266 9.85144 30.6569 10.0816 30.7149 10.3341C30.773 10.5865 30.7562 10.8505 30.6666 11.0936L23.5599 32.4269C23.4672 32.7029 23.2866 32.9409 23.0458 33.1046C22.8051 33.2683 22.5174 33.3488 22.2266 33.3336ZM13.1599 17.4669L20.0799 18.8802C20.3386 18.9301 20.5767 19.0556 20.7642 19.2406C20.9516 19.4257 21.0801 19.6622 21.1333 19.9202L22.5333 26.8402L27.2266 12.7736L13.1599 17.4669Z" fill="white"/>
</svg>
