<svg width="40" height="40" viewBox="0 0 40 40" fill="none" xmlns="http://www.w3.org/2000/svg">
<path d="M19.9333 18.3467H21.52V15.9667H23.9V14.38H21.52V12H19.9333V14.38H17.5533V15.9667H19.9333V18.3467ZM16.76 25.4867C15.8873 25.4867 15.1813 26.2007 15.1813 27.0733C15.1813 27.946 15.8873 28.66 16.76 28.66C17.6327 28.66 18.3467 27.946 18.3467 27.0733C18.3467 26.2007 17.6327 25.4867 16.76 25.4867ZM24.6933 25.4867C23.8207 25.4867 23.1146 26.2007 23.1146 27.0733C23.1146 27.946 23.8207 28.66 24.6933 28.66C25.566 28.66 26.28 27.946 26.28 27.0733C26.28 26.2007 25.566 25.4867 24.6933 25.4867ZM16.8949 22.9083L16.9187 22.8131L17.6327 21.52H23.543C24.138 21.52 24.6616 21.1947 24.9313 20.7029L27.9936 15.1416L26.6132 14.38H26.6053L25.7326 15.9667L23.543 19.9333H17.9738L17.8707 19.7191L16.0936 15.9667L15.3399 14.38L14.5942 12.7933H12V14.38H13.5867L16.4427 20.4014L15.3717 22.3451C15.2447 22.5672 15.1733 22.829 15.1733 23.1067C15.1733 23.9793 15.8873 24.6933 16.76 24.6933H26.28V23.1067H17.0932C16.9901 23.1067 16.8949 23.0194 16.8949 22.9083Z" fill="white"/>
</svg>
