<svg width="32" height="32" viewBox="0 0 32 32" fill="none" xmlns="http://www.w3.org/2000/svg">
<circle cx="16" cy="16" r="16" fill="#B31212"/>
<path d="M18.6667 8L20.7111 10.0444L18.1422 12.5956L19.4044 13.8578L21.9556 11.2889L24 13.3333V8H18.6667ZM8 13.3333L10.0444 11.2889L12.5956 13.8578L13.8578 12.5956L11.2889 10.0444L13.3333 8H8V13.3333ZM13.3333 24L11.2889 21.9556L13.8578 19.4044L12.5956 18.1422L10.0444 20.7111L8 18.6667V24H13.3333ZM24 18.6667L21.9556 20.7111L19.4044 18.1422L18.1422 19.4044L20.7111 21.9556L18.6667 24H24V18.6667Z" fill="white"/>
</svg>
