<svg width="143" height="45" viewBox="0 0 143 45" fill="none" xmlns="http://www.w3.org/2000/svg">
<path fill-rule="evenodd" clip-rule="evenodd" d="M47.7452 27.672H49.9414V29.2753L47.7452 27.672ZM54.8829 35.6442V30.7467L56.508 34.2387V35.6442H54.8829ZM47.7452 39.4436H56.9253V36.369L57.672 36.94L58.4407 38.675V41.0469H50.1391L47.7452 39.4436ZM58.0673 24.5974L61.0322 27.1449L61.8228 28.7701L60.9444 30.6808L58.0893 24.5754L58.0673 24.5974ZM59.7365 39.4436H62.5476L66.3031 30.7687V35.0952L65.9736 35.6442H64.3045V39.4436L63.5798 41.0469H61.8668L59.7145 39.4436H59.7365ZM65.0512 39.4436H74.9121V36.369L76.5154 38.104V41.0469H67.0717L65.0512 39.4436ZM71.9912 35.6442V27.672H74.9121V24.5974L76.5154 27.4524V29.2533H73.6164V35.6223H71.9912V35.6442ZM77.2401 27.672H79.4363V29.2753L77.2401 27.672ZM84.3777 35.6442V30.7467L86.0029 34.2387V35.6442H84.3777ZM77.2401 39.4436H86.4202V36.369L87.1669 36.94L87.9356 38.675V41.0469H79.634L77.2401 39.4436ZM87.5622 24.5974L90.5271 27.1449L91.3177 28.7701L90.4392 30.6808L87.5842 24.5754L87.5622 24.5974ZM89.2313 39.4436H92.0424L95.7979 30.7687V35.0952L95.4685 35.6442H93.7994V39.4436L93.0747 41.0469H91.3616L89.2094 39.4436H89.2313ZM94.5461 39.4436H104.407V36.369L106.01 38.104V41.0469H96.5666L94.5461 39.4436ZM101.486 35.6442V27.672H104.407V24.5974L106.01 27.4524V29.2533H103.111V35.6223H101.486V35.6442ZM115.168 36.3031C114.268 36.1054 113.609 35.6442 113.214 34.9634C112.818 34.2606 112.599 33.2284 112.599 31.8448C112.599 30.2635 112.884 29.0996 113.455 28.3968C114.026 27.694 114.949 27.3206 116.201 27.3206C117.189 27.3206 118.023 27.5403 118.704 27.9795C119.385 28.4187 119.868 29.0337 120.132 29.8463C119.517 29.4949 118.946 29.2313 118.397 29.0556C117.848 28.8799 117.321 28.7921 116.816 28.7921C115.893 28.7921 115.234 29.0337 114.861 29.4949C114.488 29.9561 114.29 30.8126 114.29 32.0205C114.29 32.8331 114.356 33.6018 114.51 34.2826C114.663 34.9634 114.883 35.6442 115.168 36.3031ZM120.769 30.1977H125.271V24.5974L126.874 26.2006V31.7789H122.657L120.769 30.1757V30.1977ZM125.776 33.6896L127.467 34.7657C127.225 36.8521 126.259 38.5212 124.546 39.7291C122.833 40.937 120.593 41.552 117.87 41.552C116.464 41.552 115.146 41.3324 113.917 40.9151C112.687 40.4978 111.435 39.817 110.161 38.8946C111.083 39.246 112.05 39.5315 113.082 39.6852C114.114 39.8609 115.234 39.9488 116.486 39.9488C119.407 39.9488 121.647 39.4217 123.206 38.3675C124.766 37.3133 125.644 35.754 125.82 33.6676L125.776 33.6896ZM135.417 26.1786H137.855V31.2518H142.796V33.6237H137.855V38.7189H135.417V33.6237H130.476V31.2518H135.417V26.1786ZM65.2709 16.4934H69.7072V17.5476H68.1479V21.3909H66.8521V17.5476H65.2928V16.4934H65.2709ZM125.051 33.6896C124.722 35.6223 123.865 37.0278 122.482 37.9063C121.098 38.7848 118.99 39.202 116.201 39.202C112.972 39.202 110.622 38.6091 109.151 37.4012C107.679 36.1933 106.933 34.3045 106.933 31.6911C106.933 29.3192 107.613 27.4744 108.997 26.1347C110.381 24.795 112.269 24.1362 114.685 24.1362C115.915 24.1362 117.035 24.3119 118.045 24.6632C119.078 25.0146 119.934 25.5198 120.615 26.1786V24.5974H124.502V29.4949H120.769C120.439 28.5725 119.89 27.8697 119.1 27.3646C118.309 26.8594 117.343 26.6179 116.201 26.6179C114.685 26.6179 113.587 27.0351 112.884 27.8697C112.182 28.7042 111.83 30.022 111.83 31.8448C111.83 33.6676 112.182 35.0073 112.884 35.8199C113.587 36.6545 114.685 37.0498 116.223 37.0498C117.474 37.0498 118.419 36.7643 119.056 36.2152C119.693 35.6662 120.044 34.8097 120.088 33.6896H125.051ZM77.2401 38.7189V36.3909H80.161V26.9473H77.2401V24.6193H86.7277L90.4832 32.7013L93.9971 24.6193H103.704V26.9473H100.783V36.3909H103.704V38.7189H94.59V36.3909H96.5446V27.2328L91.5593 38.7408H88.814L83.675 27.2987V36.4129H85.6955V38.7408H77.2621L77.2401 38.7189ZM22.9063 30.1977C22.9502 30.5051 22.9063 30.8126 22.7745 31.0542C22.4231 31.6691 21.5447 31.8887 20.4905 31.713L19.1288 34.1069C20.4026 34.59 21.7643 34.8755 23.1698 34.9195C23.2796 34.9195 22.9941 34.9195 23.5212 34.9195C24.0703 34.9195 25.41 34.8097 26.3104 34.612V45H20.0512V40.3221C18.9751 40.1245 17.9209 39.8389 16.9107 39.4656L14.451 43.6164L9.09224 40.4539L11.53 36.325C10.6735 35.6003 9.88287 34.8097 9.15812 33.9312L4.80966 36.3909L1.75695 30.9663L6.08346 28.5286C5.73206 27.5622 5.46852 26.552 5.27086 25.5198H11.4641C12.101 28.0893 13.5505 30.3514 15.5271 31.9985L16.8448 29.6925C16.0981 28.836 15.8126 27.9356 16.1859 27.2767C16.3397 26.9912 16.6252 26.7936 16.9766 26.6837C16.6032 26.1127 16.3177 25.4758 16.0981 24.7731C14.8682 20.7321 17.1523 16.4714 21.1933 15.2416C21.8082 15.0659 22.4231 14.9561 23.0161 14.9122L19.1947 22.0498L26.3324 25.8712L30.0878 18.8433C30.3514 19.3045 30.549 19.8097 30.7028 20.3148C31.9326 24.3558 29.6486 28.6164 25.6076 29.8463C24.7072 30.1318 23.7848 30.2196 22.8843 30.1537L22.9063 30.1977ZM19.4143 30.2855C19.5022 30.2855 19.59 30.2635 19.6779 30.2196C20.2489 30 20.5564 29.3631 20.3367 28.7921C20.183 28.3529 19.7877 28.0893 19.3485 28.0674C19.2606 28.0674 19.1947 28.0893 19.1069 28.1113C18.5139 28.3089 18.2064 28.9458 18.4041 29.5168C18.5578 29.9561 18.9531 30.2635 19.4143 30.2855ZM47.7233 38.7189V36.3909H50.6442V26.9473H47.7233V24.6193H57.2108L60.9663 32.7013L64.4802 24.6193H74.1874V26.9473H71.2665V36.3909H74.1874V38.7189H65.0732V36.3909H67.0278V27.2328L62.0425 38.7408H59.2972L54.1581 27.2987V36.4129H56.1786V38.7408H47.7452L47.7233 38.7189ZM41.0468 19.4802V19.5242H46.3836V22.5329V25.5198H41.1127C40.937 26.552 40.6515 27.5622 40.3001 28.5286L44.6266 30.9663L41.5739 36.3909L37.2255 33.9312C36.5227 34.7877 35.7321 35.6003 34.8536 36.325L37.2914 40.4539L31.9326 43.6164L29.4729 39.4656C28.4627 39.8389 27.4085 40.1245 26.3324 40.3221V34.612C31.8448 33.3382 35.9517 28.4187 35.9736 22.511V22.4671C35.9736 21.4348 35.8419 20.4466 35.6223 19.4802C34.2826 14.0556 29.3851 10.0366 23.5432 10.0366C23.4114 10.0366 23.2796 10.0366 23.1479 10.0366C22.0717 10.0805 21.0176 10.2562 20.0293 10.5417C14.9122 12.0791 11.1567 16.8228 11.1567 22.4451V22.489C11.1567 23.5212 11.2884 24.5315 11.53 25.4758H5.33675H0V22.489V19.4802H5.27086C5.44656 18.448 5.73206 17.4378 6.08346 16.4714L1.75695 14.0337L4.80966 8.60908L9.15812 11.0688C9.86091 10.2123 10.6515 9.39971 11.53 8.67496L9.09224 4.54612L14.451 1.3836L16.9107 5.53441C17.9209 5.16105 18.9531 4.87555 20.0293 4.67789H20.0512V0H26.3324V4.67789C27.4085 4.87555 28.4627 5.16105 29.4729 5.53441L31.9326 1.3836L37.2914 4.54612L34.8536 8.67496C35.7101 9.39971 36.5007 10.1903 37.2255 11.0688L41.5739 8.60908L44.6266 14.0337L40.3001 16.4714C40.6515 17.4378 40.9151 18.4261 41.1127 19.4363L41.0468 19.4802ZM76.9326 19.8316L78.2284 20.0512C78.0527 20.5344 77.7892 20.8858 77.4378 21.1274C77.0864 21.369 76.6252 21.5007 76.0981 21.5007C75.2416 21.5007 74.6266 21.2152 74.2094 20.6662C73.8799 20.2269 73.7262 19.6559 73.7262 18.9751C73.7262 18.1625 73.9458 17.5256 74.3631 17.0644C74.7804 16.6032 75.3294 16.3836 75.9663 16.3836C76.6911 16.3836 77.2621 16.6252 77.7013 17.1083C78.1186 17.5915 78.3162 18.3163 78.3162 19.3265H75.0659C75.0659 19.6999 75.1757 20.0073 75.3733 20.2269C75.571 20.4466 75.8345 20.5564 76.1201 20.5564C76.3177 20.5564 76.4934 20.4905 76.6252 20.3807C76.757 20.2709 76.8668 20.0952 76.9326 19.8536V19.8316ZM76.9985 18.5139C76.9985 18.1406 76.8887 17.8551 76.713 17.6574C76.5373 17.4597 76.2957 17.3719 76.0322 17.3719C75.7467 17.3719 75.5051 17.4817 75.3294 17.6794C75.1537 17.877 75.0439 18.1625 75.0659 18.5139H76.9985ZM82.2035 21.3909L83.9605 18.8653L82.2694 16.4934H83.8507L84.7291 17.8331L85.6515 16.4934H87.1669L85.4978 18.8214L87.3206 21.3909H85.7394L84.7511 19.8755L83.7408 21.3909H82.2255H82.2035ZM91.6471 16.4934H92.9429V20.3368H94.7877V16.4934H96.0835V20.3368H96.5886V22.6647H95.5344V21.369H91.6252V16.4714L91.6471 16.4934ZM103.946 19.8316L105.242 20.0512C105.066 20.5344 104.802 20.8858 104.451 21.1274C104.1 21.369 103.638 21.5007 103.111 21.5007C102.255 21.5007 101.64 21.2152 101.223 20.6662C100.893 20.2269 100.739 19.6559 100.739 18.9751C100.739 18.1625 100.959 17.5256 101.376 17.0644C101.794 16.6032 102.343 16.3836 102.979 16.3836C103.704 16.3836 104.275 16.6252 104.714 17.1083C105.132 17.5915 105.329 18.3163 105.329 19.3265H102.079C102.079 19.6999 102.189 20.0073 102.387 20.2269C102.584 20.4466 102.848 20.5564 103.133 20.5564C103.331 20.5564 103.507 20.4905 103.638 20.3807C103.77 20.2709 103.88 20.0952 103.946 19.8536V19.8316ZM104.012 18.5139C104.012 18.1406 103.902 17.8551 103.726 17.6574C103.551 17.4597 103.309 17.3719 103.045 17.3719C102.76 17.3719 102.518 17.4817 102.343 17.6794C102.167 17.877 102.057 18.1625 102.079 18.5139H104.012ZM109.919 16.4934H111.215V18.2943H113.06V16.4934H114.356V21.3909H113.06V19.3265H111.215V21.3909H109.919V16.4934ZM118.704 16.4934H123.141V17.5476H121.581V21.3909H120.285V17.5476H118.726V16.4934H118.704ZM127.489 16.4934H128.697V17.2182C128.851 16.9766 129.07 16.7789 129.334 16.6252C129.597 16.4714 129.905 16.3836 130.234 16.3836C130.805 16.3836 131.288 16.6032 131.684 17.0425C132.079 17.4817 132.277 18.1186 132.277 18.9092C132.277 19.7218 132.079 20.3587 131.684 20.8199C131.288 21.2811 130.805 21.5007 130.234 21.5007C129.971 21.5007 129.707 21.4568 129.488 21.347C129.268 21.2372 129.026 21.0615 128.785 20.798V23.2577H127.489V16.4934ZM128.763 18.8653C128.763 19.4143 128.873 19.8316 129.092 20.0732C129.312 20.3368 129.575 20.4685 129.883 20.4685C130.19 20.4685 130.432 20.3368 130.63 20.1171C130.827 19.8755 130.937 19.4802 130.937 18.9312C130.937 18.4261 130.827 18.0307 130.63 17.7892C130.432 17.5476 130.168 17.4158 129.861 17.4158C129.553 17.4158 129.29 17.5476 129.07 17.7892C128.851 18.0307 128.763 18.4041 128.763 18.8653Z" fill="#FEFEFE"/>
</svg>
