<svg width="160" height="51" viewBox="0 0 160 51" fill="none" xmlns="http://www.w3.org/2000/svg">
<path d="M73.1279 18.4438H78.0966V19.6245H76.3502V23.929H74.8989V19.6245H73.1525V18.4438H73.1279ZM86.1891 22.1826L87.6403 22.4285C87.4435 22.9697 87.1484 23.3632 86.7548 23.6338C86.3613 23.9044 85.8447 24.052 85.2544 24.052C84.2951 24.052 83.6064 23.7322 83.139 23.1173C82.7701 22.6253 82.5979 21.9858 82.5979 21.2233C82.5979 20.3132 82.8439 19.5999 83.3112 19.0833C83.7786 18.5668 84.3935 18.3208 85.1068 18.3208C85.9185 18.3208 86.558 18.5914 87.05 19.1325C87.5173 19.6736 87.7387 20.4854 87.7387 21.6168H84.0983C84.0983 22.035 84.2213 22.3793 84.4427 22.6253C84.6641 22.8713 84.9592 22.9943 85.279 22.9943C85.5004 22.9943 85.6971 22.9205 85.8447 22.7975C85.9923 22.6745 86.1153 22.4777 86.1891 22.2072V22.1826ZM86.2629 20.7067C86.2629 20.2886 86.1399 19.9688 85.9431 19.7474C85.7463 19.5261 85.4758 19.4277 85.1806 19.4277C84.8608 19.4277 84.5903 19.5507 84.3935 19.772C84.1967 19.9934 84.0737 20.3132 84.0983 20.7067H86.2629ZM92.0924 23.929L94.0602 21.1003L92.1662 18.4438H93.9372L94.9211 19.9442L95.9542 18.4438H97.6514L95.782 21.0511L97.8236 23.929H96.0526L94.9457 22.2318L93.8142 23.929H92.117H92.0924ZM102.669 18.4438H104.121V22.7483H106.187V18.4438H107.638V22.7483H108.204V25.3556H107.023V23.9044H102.645V18.4192L102.669 18.4438ZM116.444 22.1826L117.895 22.4285C117.698 22.9697 117.403 23.3632 117.009 23.6338C116.616 23.9044 116.099 24.052 115.509 24.052C114.55 24.052 113.861 23.7322 113.394 23.1173C113.025 22.6253 112.853 21.9858 112.853 21.2233C112.853 20.3132 113.099 19.5999 113.566 19.0833C114.033 18.5668 114.648 18.3208 115.361 18.3208C116.173 18.3208 116.813 18.5914 117.305 19.1325C117.772 19.6736 117.993 20.4854 117.993 21.6168H114.353C114.353 22.035 114.476 22.3793 114.697 22.6253C114.919 22.8713 115.214 22.9943 115.534 22.9943C115.755 22.9943 115.952 22.9205 116.099 22.7975C116.247 22.6745 116.37 22.4777 116.444 22.2072V22.1826ZM116.518 20.7067C116.518 20.2886 116.395 19.9688 116.198 19.7474C116.001 19.5261 115.73 19.4277 115.435 19.4277C115.115 19.4277 114.845 19.5507 114.648 19.772C114.451 19.9934 114.328 20.3132 114.353 20.7067H116.518ZM123.134 18.4438H124.585V20.4608H126.652V18.4438H128.103V23.929H126.652V21.6168H124.585V23.929H123.134V18.4438ZM132.973 18.4438H137.942V19.6245H136.195V23.929H134.744V19.6245H132.998V18.4438H132.973ZM142.812 18.4438H144.165V19.2555C144.337 18.9849 144.583 18.7636 144.878 18.5914C145.173 18.4192 145.518 18.3208 145.887 18.3208C146.526 18.3208 147.067 18.5668 147.51 19.0587C147.953 19.5507 148.174 20.264 148.174 21.1495C148.174 22.0596 147.953 22.7729 147.51 23.2894C147.067 23.806 146.526 24.052 145.887 24.052C145.592 24.052 145.296 24.0028 145.05 23.8798C144.804 23.7568 144.534 23.56 144.263 23.2648V26.0197H142.812V18.4438ZM144.239 21.1003C144.239 21.7152 144.362 22.1826 144.608 22.4531C144.854 22.7483 145.149 22.8959 145.493 22.8959C145.837 22.8959 146.108 22.7483 146.329 22.5023C146.551 22.2318 146.674 21.789 146.674 21.1741C146.674 20.6083 146.551 20.1656 146.329 19.895C146.108 19.6245 145.813 19.4769 145.469 19.4769C145.124 19.4769 144.829 19.6245 144.583 19.895C144.337 20.1656 144.239 20.5837 144.239 21.1003Z" fill="#B31212"/>
<path fill-rule="evenodd" clip-rule="evenodd" d="M23.7603 17.0491C24.449 16.8524 25.1377 16.7294 25.8019 16.6802L21.5219 24.6743L29.5161 28.9542L33.7222 21.0831C34.0174 21.5996 34.2387 22.1654 34.4109 22.7311C35.7884 27.257 33.2303 32.0289 28.7044 33.4063C26.7366 33.9967 24.695 33.8491 22.924 33.1112C23.0962 32.816 23.1454 32.4716 23.047 32.1027C22.8502 31.4385 22.1615 31.0696 21.4974 31.2664C21.2022 31.3647 20.9562 31.5615 20.784 31.8075C19.5296 30.7744 18.5457 29.3478 18.0291 27.6752C16.6517 23.1493 19.2098 18.3774 23.7357 16.9999L23.7603 17.0491Z" fill="#2B2A29"/>
<path fill-rule="evenodd" clip-rule="evenodd" d="M21.7568 28.2627L25.7908 30.5502L16.2224 47.3994L12.1885 45.1118L21.7568 28.2627ZM21.2649 31.4603C21.9044 31.2144 22.6423 31.5587 22.8637 32.1983C23.1097 32.8378 22.7653 33.5757 22.1258 33.7971C21.4862 34.0431 20.7483 33.6987 20.527 33.0592C20.281 32.4196 20.6253 31.6817 21.2649 31.4603Z" fill="#2B2A29"/>
<path fill-rule="evenodd" clip-rule="evenodd" d="M22.994 30.6067C25.0356 31.7628 26.1671 33.6322 25.5275 34.739C24.888 35.8459 22.7235 35.7967 20.6819 34.6407C18.6403 33.4846 17.5088 31.6152 18.1484 30.5083C18.7879 29.4014 20.9525 29.4506 22.994 30.6067ZM21.4444 31.443C22.1085 31.2216 22.7973 31.566 23.0186 32.2301C23.24 32.8943 22.8956 33.583 22.2315 33.8044C21.5674 34.0257 20.8787 33.6814 20.6573 33.0172C20.4359 32.3531 20.7803 31.6644 21.4444 31.443Z" fill="#2B2A29"/>
<path fill-rule="evenodd" clip-rule="evenodd" d="M1.96778 15.711L5.3868 9.63547L10.2571 12.3904C11.0442 11.4311 11.9297 10.521 12.9136 9.70926L10.1833 5.08498L16.185 1.54297L18.9399 6.19185C20.0714 5.7737 21.2274 5.45393 22.4327 5.23256V11.7754C16.7015 13.4972 12.4954 18.8103 12.4954 25.1072V25.1563C12.4954 26.3124 12.643 27.4439 12.9136 28.5016H5.97714H0V25.1563V21.7865H5.90335C6.10012 20.6305 6.41989 19.499 6.81345 18.4167L1.96778 15.6864V15.711Z" fill="#E31E24"/>
<path fill-rule="evenodd" clip-rule="evenodd" d="M29.531 50.3344H22.5208V45.0952C21.3155 44.8738 20.1348 44.554 19.0034 44.1359L16.2485 48.7848L10.2467 45.2428L12.977 40.6185C12.0177 39.8068 11.1322 38.9213 10.3205 37.9374L5.45027 40.6923L2.03125 34.6167L6.87691 31.8864C6.48336 30.8041 6.18819 29.6727 5.96681 28.5166H12.9032C14.3791 34.4445 19.6429 38.8475 25.989 39.0442C26.112 39.0442 26.2596 39.0442 26.3826 39.0442C27.4648 39.0442 28.4979 38.9213 29.5064 38.6999V50.3344H29.531Z" fill="#EF7F1A"/>
<path fill-rule="evenodd" clip-rule="evenodd" d="M46.0124 21.7778V21.827H51.9895V25.1969V28.5421H46.0862C45.8894 29.6982 45.5696 30.8296 45.1761 31.9119L50.0218 34.6422L46.6027 40.7177L41.7325 37.9628C40.9454 38.9221 40.0599 39.8322 39.076 40.6439L41.8063 45.2682L35.8045 48.8102L33.0496 44.1614C31.9182 44.5795 30.7375 44.8993 29.5322 45.1207V38.7254C35.7061 37.2987 40.3058 31.7889 40.3304 25.1723V25.1231C40.3304 23.967 40.1828 22.8355 39.9123 21.7778H45.9878H46.0124Z" fill="#009846"/>
<path fill-rule="evenodd" clip-rule="evenodd" d="M22.4229 5.23922H22.4474V0H29.4823V5.23922C30.6875 5.4606 31.8682 5.78036 32.9997 6.19851L35.7546 1.54963L41.7563 5.09164L39.026 9.71593C39.9853 10.5276 40.8708 11.4131 41.6825 12.397L46.5528 9.64213L49.9718 15.7177L45.1261 18.448C45.5197 19.5302 45.8149 20.6371 46.0362 21.7932H39.9607C38.4603 15.7177 32.9751 11.2164 26.4322 11.2164C26.2846 11.2164 26.137 11.2164 25.9895 11.2164C24.7842 11.2656 23.6035 11.4623 22.4966 11.7821V5.23922H22.4229Z" fill="#00A0E3"/>
<path fill-rule="evenodd" clip-rule="evenodd" d="M151.735 29.2783H154.465V34.9603H159.999V37.6168H154.465V43.3234H151.735V37.6168H146.176V34.9603H151.735V29.2783Z" fill="#2B2A29"/>
<path fill-rule="evenodd" clip-rule="evenodd" d="M140.14 37.6734C139.771 39.838 138.812 41.4122 137.263 42.3961C135.713 43.38 133.352 43.8474 130.228 43.8474C126.612 43.8474 123.98 43.1832 122.332 41.8304C120.684 40.4775 119.848 38.3622 119.848 35.4351C119.848 32.7786 120.61 30.7124 122.16 29.212C123.709 27.7116 125.825 26.9736 128.53 26.9736C129.908 26.9736 131.162 27.1704 132.294 27.564C133.45 27.9575 134.409 28.5233 135.172 29.2612V27.4902H139.525V32.9754H135.344C134.975 31.9423 134.36 31.1552 133.475 30.5894C132.589 30.0237 131.507 29.7531 130.228 29.7531C128.53 29.7531 127.301 30.2205 126.514 31.1552C125.726 32.0899 125.333 33.5657 125.333 35.6073C125.333 37.6489 125.726 39.1493 126.514 40.0594C127.301 40.9941 128.53 41.4368 130.252 41.4368C131.654 41.4368 132.712 41.1171 133.425 40.5021C134.139 39.8872 134.532 38.9279 134.581 37.6734H140.14Z" fill="#2B2A29"/>
<path fill-rule="evenodd" clip-rule="evenodd" d="M129.054 40.6081C128.045 40.3868 127.307 39.8702 126.865 39.1077C126.422 38.3206 126.176 37.1645 126.176 35.6149C126.176 33.8439 126.496 32.5402 127.135 31.7531C127.775 30.966 128.808 30.5479 130.21 30.5479C131.317 30.5479 132.251 30.7938 133.014 31.2858C133.776 31.7777 134.317 32.4664 134.613 33.3765C133.924 32.983 133.284 32.6878 132.669 32.491C132.055 32.2943 131.464 32.1959 130.898 32.1959C129.865 32.1959 129.127 32.4664 128.709 32.983C128.291 33.4995 128.07 34.4588 128.07 35.8117C128.07 36.7218 128.144 37.5827 128.316 38.3452C128.488 39.1077 128.734 39.8702 129.054 40.6081Z" fill="#2B2A29"/>
<path fill-rule="evenodd" clip-rule="evenodd" d="M135.316 33.7733H140.359V27.501L142.154 29.3212V35.5689H137.432L135.316 33.7733Z" fill="#2B2A29"/>
<path fill-rule="evenodd" clip-rule="evenodd" d="M140.93 37.6823L142.824 38.8876C142.553 41.2243 141.471 43.0937 139.553 44.4466C137.634 45.7994 135.125 46.4881 132.075 46.4881C130.501 46.4881 129.025 46.2422 127.648 45.7748C126.27 45.3075 124.868 44.5449 123.441 43.5119C124.474 43.9054 125.557 44.2252 126.713 44.3974C127.869 44.5941 129.123 44.6925 130.525 44.6925C133.797 44.6925 136.306 44.1022 138.052 42.9215C139.799 41.7409 140.782 39.9945 140.979 37.6577L140.93 37.6823Z" fill="#2B2A29"/>
<path fill-rule="evenodd" clip-rule="evenodd" d="M86.5654 30.9385H89.0252V32.7341L86.5654 30.9385Z" fill="#2B2A29"/>
<path fill-rule="evenodd" clip-rule="evenodd" d="M94.5342 39.8807V34.3955L96.3544 38.3065V39.8807H94.5342Z" fill="#2B2A29"/>
<path fill-rule="evenodd" clip-rule="evenodd" d="M86.5654 43.317V40.7097H89.8369V30.1329H86.5654V27.501H97.1915L101.398 36.5528L105.309 27.501H116.181V30.1329H112.909V40.7097H116.181V43.317H105.973V40.7097H108.162V30.4281L102.578 43.317H99.5036L93.7478 30.5018V40.7097H96.0108V43.317H86.5654Z" fill="#2B2A29"/>
<path fill-rule="evenodd" clip-rule="evenodd" d="M100.003 44.1505H103.151L107.358 34.4346V39.2556L106.964 39.8706H105.119V44.1505L104.307 45.9215H102.413L100.003 44.1505Z" fill="#2B2A29"/>
<path fill-rule="evenodd" clip-rule="evenodd" d="M86.5654 44.1482H96.8471V40.7046L97.6834 41.3195L98.5443 43.2627V45.9192H89.2465L86.5654 44.1482Z" fill="#2B2A29"/>
<path fill-rule="evenodd" clip-rule="evenodd" d="M98.1279 27.501L101.449 30.3543L102.334 32.1991L101.35 34.339L98.1279 27.501Z" fill="#2B2A29"/>
<path fill-rule="evenodd" clip-rule="evenodd" d="M113.753 39.8734V30.9446H117.024V27.501L118.82 30.7232V32.7402H115.549V39.8734H113.753Z" fill="#2B2A29"/>
<path fill-rule="evenodd" clip-rule="evenodd" d="M105.94 44.1482H117.009V40.7046L118.805 42.6232V45.9192H108.228L105.94 44.1482Z" fill="#2B2A29"/>
<path fill-rule="evenodd" clip-rule="evenodd" d="M53.5176 30.9385H55.9773V32.7341L53.5176 30.9385Z" fill="#2B2A29"/>
<path fill-rule="evenodd" clip-rule="evenodd" d="M61.4863 39.8807V34.3955L63.3065 38.3065V39.8807H61.4863Z" fill="#2B2A29"/>
<path fill-rule="evenodd" clip-rule="evenodd" d="M53.5176 43.317V40.7097H56.789V30.1329H53.5176V27.501H64.1436L68.3497 36.5528L72.2853 27.501H83.1327V30.1329H79.8613V40.7097H83.1327V43.317H72.9494V40.7097H75.1386V30.4281L69.5304 43.317H66.4557L60.7 30.5018V40.7097H62.9629V43.317H53.5176Z" fill="#2B2A29"/>
<path fill-rule="evenodd" clip-rule="evenodd" d="M66.9561 44.1505H70.1045L74.3106 34.4346V39.2556L73.9417 39.8706H72.0723V44.1505L71.2606 45.9215H69.3666L66.9561 44.1505Z" fill="#2B2A29"/>
<path fill-rule="evenodd" clip-rule="evenodd" d="M53.5176 44.1482H63.7992V40.7046L64.6355 41.3195L65.4965 43.2627V45.9192H56.1987L53.5176 44.1482Z" fill="#2B2A29"/>
<path fill-rule="evenodd" clip-rule="evenodd" d="M65.0801 27.501L68.4253 30.3543L69.2862 32.1991L68.3023 34.339L65.0801 27.501Z" fill="#2B2A29"/>
<path fill-rule="evenodd" clip-rule="evenodd" d="M80.7061 39.8734V30.9446H83.9775V27.501L85.7731 30.7232V32.7402H82.5263V39.8734H80.7061Z" fill="#2B2A29"/>
<path fill-rule="evenodd" clip-rule="evenodd" d="M72.8926 44.1482H83.9368V40.7046L85.7324 42.6232V45.9192H75.1555L72.8926 44.1482Z" fill="#2B2A29"/>
</svg>
